<svg xmlns="http://www.w3.org/2000/svg" width="24" height="24" viewBox="0 0 24 24">
  <path fill="#FFFFFF" d="M21,21 L17.2710444,21 L17.2710444,15.1534992 C17.2710444,13.7587092 17.2465945,11.9650078 15.3325183,11.9650078 C13.391198,11.9650078 13.0957038,13.48507 13.0957038,15.0534215 L13.0957038,21 L9.37024101,21 L9.37024101,8.97667185 L12.9455117,8.97667185 L12.9455117,10.6206065 L12.9965072,10.6206065 C13.4938875,9.67511664 14.7114914,8.6785381 16.5263709,8.6785381 C20.3021306,8.6785381 21,11.1678849 21,14.4060653 L21,21 Z M3,5.16671851 C3,3.97068429 3.96611946,3 5.16416346,3 C6.3573175,3 7.32623123,3.97068429 7.32623123,5.16671851 C7.32623123,6.36345257 6.3573175,7.33413686 5.16416346,7.33413686 C3.96611946,7.33413686 3,6.36345257 3,5.16671851 Z M3.29689137,21 L3.29689137,8.97667185 L7.03003842,8.97667185 L7.03003842,21 L3.29689137,21 Z"/>
</svg>
