<svg xmlns="http://www.w3.org/2000/svg" width="24" height="24" viewBox="0 0 24 24">
  <path fill="#FFFFFF" d="M22,5.89400421 C21.2641406,6.21527931 20.4733594,6.43238515 19.6433594,6.5300174 C20.4905078,6.03012795 21.1411328,5.23857224 21.4475391,4.2953193 C20.6546094,4.75825539 19.7765234,5.09437336 18.841875,5.27548715 C18.0934375,4.49046845 17.0270313,4 15.8468359,4 C13.5807812,4 11.7435547,5.80844621 11.7435547,8.03910674 C11.7435547,8.35565212 11.7798437,8.66396855 11.8498047,8.95959547 C8.43964844,8.79113273 5.41617187,7.18306528 3.39246094,4.73929804 C3.03925781,5.33585842 2.836875,6.02970497 2.836875,6.76996433 C2.836875,8.17130827 3.56125,9.40765023 4.66226562,10.13199 C3.98964844,10.1109947 3.35695312,9.9293041 2.80378906,9.62675562 C2.80339844,9.6436365 2.80339844,9.66047893 2.80339844,9.67755208 C2.80339844,11.6345808 4.2178125,13.2670659 6.09484375,13.6382146 C5.75058594,13.7305019 5.38804687,13.779991 5.01382812,13.779991 C4.74941406,13.779991 4.49238281,13.754612 4.24179687,13.707507 C4.76398437,15.3121137 6.27929688,16.4800477 8.07484375,16.512502 C6.67054687,17.5959163 4.90128906,18.2416581 2.97882812,18.2416581 C2.64761719,18.2416581 2.32101563,18.2225085 2,18.1850552 C3.81585937,19.3312633 5.97269531,20 8.28988281,20 C15.8371484,20 19.9644141,13.8451304 19.9644141,8.50742624 C19.9644141,8.33231112 19.9603906,8.15811888 19.9525,7.9848495 C20.7542969,7.41539852 21.4499219,6.70401738 22,5.89400421"/>
</svg>
