<?xml version="1.0" encoding="utf-8"?>
<!-- Generator: Adobe Illustrator 22.0.1, SVG Export Plug-In . SVG Version: 6.00 Build 0)  -->
<svg version="1.1" id="Layer_1" xmlns="http://www.w3.org/2000/svg" xmlns:xlink="http://www.w3.org/1999/xlink" x="0px" y="0px"
	 viewBox="0 0 1000 620" style="enable-background:new 0 0 1000 620;" xml:space="preserve">
<g>
	<path d="M990.8,526c-15.5,39.5-46.5,56-77.9,56c-36.7,0-63.4-21.6-91.4-55l-28.1-33.3c37.2-55.5,72.2-149,89.8-194
		c16-40.9,56.8-50.6,56.8-50.6l0-3.2H816.2l0,3.2c0,0,41.3,10.7,41.3,47.6c0,36-26.8,116.1-71.8,187.9L605.5,271.2
		c81.3-30.9,135-82.7,135.3-150.1C741.1,57,694.9,5,626,5c-96.2,0-197.5,111.2-65.1,273.5c-87.7,38.4-130.8,94.3-131.1,168.9
		C429.4,533.8,494.6,615,595.6,615c89.6,0,139.1-46.3,170.9-85.1l21.8,26.7c29.4,35,60.9,58.4,104.8,58.4c55,0,94.3-42.7,99.4-88.6
		L990.8,526z M537.1,117.9c0.3-64,46.7-99.7,88.5-99.7c48.9,0,80.2,45,79.9,103.7C705.2,186,662,236,598.8,263.2
		C553.5,208.9,536.8,165.3,537.1,117.9z M627.4,586.9c-90.2,0-156.3-72.9-158.5-154.6c1.1-77.3,37.4-116.5,98.9-145.5L759,520.8
		C718.5,566.7,676.4,586.9,627.4,586.9z"/>
	<path d="M356.1,507.7L161,269.1l154.7-163.9c29.3-31.7,50.7-57.1,108.6-84.8v-1.6H293.5v1.6c23,22.2,33.3,49.1-1.6,86.4l-149.2,157
		h-40.8l18.9,23.1L82,327.7v-240c0-26.1,11.6-50.8,31.7-67.4l0,0v-1.6H7.4v1.6C27.5,37,39.2,61.7,39.2,87.8v444.5
		c0,26.1-11.6,50.8-31.7,67.4v1.6h106.2v-1.6h0C93.6,583,82,558.3,82,532.2V352.9l49.8-52.8l246.6,301.1h87.5l-0.8-1.6
		C429.4,583,406,568.7,356.1,507.7z"/>
</g>
</svg>
