<?xml version="1.0" encoding="UTF-8"?>
<svg width="93px" height="82px" viewBox="0 0 93 82" version="1.1" xmlns="http://www.w3.org/2000/svg" xmlns:xlink="http://www.w3.org/1999/xlink">
    <!-- Generator: sketchtool 50.2 (55047) - http://www.bohemiancoding.com/sketch -->
    <title>B6B99AAD-DF1E-4CCA-9DDD-D14C14B63A46</title>
    <desc>Created with sketchtool.</desc>
    <defs></defs>
    <g id="Symbols" stroke="none" stroke-width="1" fill="none" fill-rule="evenodd">
        <g id="kp-logo-white" fill="#FFFFFF">
            <g id="Group">
                <path d="M14.5760472,31.8266462 L43.4262477,65.3469385 L53.69261,65.3469385 L53.6002736,65.1699846 C49.4169782,63.3132154 46.678976,61.7212538 40.8238031,54.9116462 L18.0088642,28.3648308 L35.9712328,10.2513615 C39.4105984,6.71415385 41.9200517,3.88413846 48.7051369,0.788692308 L48.7051369,0.611738462 L33.3687882,0.611738462 L33.3687882,0.788692308 C36.064224,3.26542308 37.272455,6.27176923 33.1828057,10.4283154 L15.870066,27.7648077 L11.080363,27.7648077 L13.2970904,30.3406077 L8.7379009,34.9065154 L8.7379009,8.30860769 C8.7379009,5.40008462 10.1006808,2.64296923 12.4555853,0.788692308 L12.4555853,0.611738462 L0,0.611738462 L0,0.788692308 C2.35555944,2.64296923 3.7183393,5.40008462 3.7183393,8.30860769 L3.7183393,57.6500692 C3.7183393,60.5585923 2.35555944,63.3157077 0,65.1699846 L0,65.3469385 L12.4555853,65.3469385 L12.4555853,65.1699846 C10.1006808,63.3157077 8.7379009,60.5585923 8.7379009,57.6500692 L8.7379009,37.7147231 L14.5760472,31.8266462 Z" id="Fill-1"></path>
                <path d="M49.9461314,78.8952077 C39.4774149,78.8952077 31.8010547,70.8400692 31.5430368,61.8229 C31.666152,53.2867462 35.8815359,48.9544923 43.023524,45.7543692 L65.2215774,71.5871385 C60.5261754,76.6602308 55.6402068,78.8952077 49.9461314,78.8952077 Z M49.7365737,16.0691154 C55.4175518,16.0691154 59.0494485,21.0425154 59.0180149,27.5231385 C58.982652,34.6031615 53.9644002,40.1360846 46.6272615,43.1374462 C41.3614696,37.1390846 39.4315742,32.3233231 39.4577689,27.0813769 C39.4931318,20.0063385 44.8754901,16.0691154 49.7365737,16.0691154 Z M92.1346789,72.1678462 C90.336412,76.5262692 86.7411878,78.3581154 83.0909548,78.3581154 C78.8323496,78.3581154 75.7263116,75.9711077 72.4755479,72.2812462 L69.2103771,68.6007308 C73.5292302,62.4652923 77.5985786,52.1402846 79.6391467,47.1687538 C81.4904579,42.6558077 86.2362848,41.5847385 86.2362848,41.5847385 L86.2382494,41.2308308 L71.8671758,41.2308308 L71.8652112,41.5847385 C71.8652112,41.5847385 76.6627726,42.7698308 76.6627726,46.8447538 C76.6627726,50.8174923 73.5560798,59.6707923 68.3256508,67.6031846 L47.4013152,44.0159846 C56.8405795,40.6015231 63.0781952,34.8760692 63.1148678,27.4384 C63.1502306,20.3633615 57.7881732,14.6117385 49.7883083,14.6117385 C38.6142992,14.6117385 26.8522189,26.8925846 42.2258951,44.8247385 C32.0479399,49.0691385 27.0408208,55.2463231 27.000219,63.4790385 C26.9530685,73.0301846 34.523995,82 46.2500576,82 C56.6532873,82 62.3958229,76.8820462 66.0912419,72.5996385 L68.6262351,75.5492846 C72.0367865,79.4198385 75.6929134,82 80.7969529,82 C87.1779847,82 91.7469972,77.2820615 92.3409623,72.2102154 L92.1346789,72.1678462 Z" id="Fill-3"></path>
            </g>
        </g>
    </g>
</svg>