<?xml version="1.0" encoding="UTF-8"?>
<svg width="26px" height="26px" viewBox="0 0 26 26" version="1.1" xmlns="http://www.w3.org/2000/svg" xmlns:xlink="http://www.w3.org/1999/xlink">
    <!-- Generator: Sketch 49.3 (51167) - http://www.bohemiancoding.com/sketch -->
    <title>search-big</title>
    <desc>Created with Sketch.</desc>
    <defs></defs>
    <g id="Page-1" stroke="none" stroke-width="1" fill="none" fill-rule="evenodd" opacity="0.75">
        <g id="VisualEditor_-_Icon_-_Search-big" fill="#4CAF50" fill-rule="nonzero">
            <g id="Icons">
                <path d="M25.658568,23.0377008 L18.9832285,16.3623612 C18.8443132,16.223446 18.6757628,16.1271314 18.4886903,16.0734176 C19.672248,14.4119915 20.3742329,12.3838292 20.3742329,10.1871164 C20.3742329,4.56197597 15.8122569,0 10.1871164,0 C4.56197597,0 0,4.56197597 0,10.1871164 C0,15.8122569 4.56197597,20.3742329 10.1871164,20.3742329 C12.3838292,20.3742329 14.4119915,19.672248 16.077122,18.4886903 C16.1289836,18.6757628 16.2252982,18.842461 16.3642134,18.9832285 L23.039553,25.658568 C23.5970661,26.2160811 24.6287432,26.0790181 25.3529545,25.3529545 C26.0771659,24.6287432 26.2142289,23.5952139 25.658568,23.0377008 Z M10.1871164,16.6698269 C6.60866027,16.6698269 3.70440598,13.7655726 3.70440598,10.1871164 C3.70440598,6.60866027 6.60866027,3.70440598 10.1871164,3.70440598 C13.7655726,3.70440598 16.6698269,6.60866027 16.6698269,10.1871164 C16.6698269,13.7655726 13.7655726,16.6698269 10.1871164,16.6698269 Z" id="search-big"></path>
            </g>
        </g>
    </g>
</svg>